# This file uses centimeters as units for non-parametric coordinates.

mtllib Cockpit.mtl
g default
v -0.577346 -0.183878 -0.164019
v -0.524068 -0.219077 -0.164019
v 0.524068 -0.219077 -0.164019
v 0.577346 -0.183878 -0.164019
v -0.445908 -0.259893 -0.825548
v -0.323245 -0.295092 -0.819164
v -0.234125 -0.295092 -0.819164
v 0.234125 -0.295092 -0.819164
v 0.323245 -0.295092 -0.819164
v 0.445908 -0.259893 -0.825548
v -0.445908 -0.259893 -0.916697
v -0.324594 -0.259893 -0.955095
v -0.256276 -0.259893 -0.955095
v 0.256276 -0.259893 -0.955095
v 0.324594 -0.259893 -0.955095
v 0.445908 -0.259893 -0.916697
v -0.515927 -0.299055 -0.108744
v 0.515927 -0.299055 -0.108744
v -0.246317 -0.440276 -0.484696
v -0.324851 -0.437995 -0.482791
v 0.246317 -0.440276 -0.484696
v 0.324851 -0.437995 -0.482791
v -0.331817 -0.532412 0.478925
v -0.413744 -0.359699 -0.141773
v 0.331817 -0.532412 0.478925
v 0.413744 -0.359699 -0.141773
v -0.247345 -0.542274 -0.440836
v 0.247345 -0.542274 -0.440836
v -0.350234 -0.235177 -0.830549
v -0.267890 -0.226105 -0.848951
v -0.267890 -0.197078 -0.907831
v -0.350234 -0.206149 -0.889430
v -0.211506 -0.226105 -0.848951
v -0.211506 -0.197078 -0.907831
v 0.211506 -0.226105 -0.848951
v 0.211506 -0.197078 -0.907831
v 0.267890 -0.226105 -0.848951
v 0.267890 -0.197078 -0.907831
v 0.350234 -0.235177 -0.830549
v 0.350234 -0.206149 -0.889430
v -0.328884 -0.182096 -0.821993
v -0.292355 -0.176351 -0.833647
v -0.292355 -0.157966 -0.870938
v -0.328884 -0.163712 -0.859284
v 0.292355 -0.176351 -0.833647
v 0.328884 -0.182096 -0.821993
v 0.328884 -0.163712 -0.859284
v 0.292355 -0.157966 -0.870938
v -0.328884 0.216195 -0.611276
v -0.292356 0.221941 -0.622930
v -0.292356 0.240325 -0.660221
v -0.328884 0.234580 -0.648567
v 0.292183 0.221941 -0.622930
v 0.328884 0.216195 -0.611275
v 0.328884 0.234580 -0.648567
v 0.292183 0.240325 -0.660221
v -0.328884 0.231577 -0.592057
v -0.292356 0.241917 -0.599925
v -0.292356 0.275005 -0.625101
v -0.328884 0.264664 -0.617233
v 0.292183 0.241917 -0.599925
v 0.328884 0.231577 -0.592057
v 0.328884 0.264664 -0.617233
v 0.292183 0.275005 -0.625101
v -0.328690 0.518225 0.421912
v -0.254339 0.527556 0.413847
v -0.255129 0.562330 0.390441
v -0.328885 0.551989 0.398308
v 0.254339 0.527556 0.413847
v 0.328690 0.518225 0.421912
v 0.328885 0.551989 0.398308
v 0.255129 0.562329 0.390441
vt 0.375000 0.333333
vt 0.425000 0.333333
vt 0.475000 0.333333
vt 0.525000 0.333333
vt 0.575000 0.333333
vt 0.625000 0.333333
vt 0.375000 0.416667
vt 0.425000 0.416667
vt 0.475000 0.416667
vt 0.525000 0.416667
vt 0.575000 0.416667
vt 0.625000 0.416667
vt 0.375000 0.500000
vt 0.425000 0.500000
vt 0.475000 0.500000
vt 0.525000 0.500000
vt 0.575000 0.500000
vt 0.625000 0.500000
vt 0.425000 0.333333
vt 0.575000 0.333333
vt 0.475000 0.416667
vt 0.425000 0.416667
vt 0.525000 0.416667
vt 0.575000 0.416667
vt 0.425000 0.333333
vt 0.575000 0.333333
vt 0.475000 0.416667
vt 0.525000 0.416667
vt 0.375000 0.416667
vt 0.425000 0.416667
vt 0.425000 0.500000
vt 0.375000 0.500000
vt 0.475000 0.416667
vt 0.475000 0.500000
vt 0.525000 0.416667
vt 0.525000 0.500000
vt 0.575000 0.416667
vt 0.575000 0.500000
vt 0.625000 0.416667
vt 0.625000 0.500000
vt 0.375000 0.416667
vt 0.425000 0.416667
vt 0.425000 0.500000
vt 0.375000 0.500000
vt 0.575000 0.416667
vt 0.625000 0.416667
vt 0.625000 0.500000
vt 0.575000 0.500000
vt 0.375000 0.416667
vt 0.425000 0.416667
vt 0.425000 0.500000
vt 0.375000 0.500000
vt 0.575000 0.416667
vt 0.625000 0.416667
vt 0.625000 0.500000
vt 0.575000 0.500000
vt 0.375000 0.416667
vt 0.425000 0.416667
vt 0.425000 0.500000
vt 0.375000 0.500000
vt 0.575000 0.416667
vt 0.625000 0.416667
vt 0.625000 0.500000
vt 0.575000 0.500000
vt 0.375000 0.416667
vt 0.425000 0.416667
vt 0.425000 0.500000
vt 0.375000 0.500000
vt 0.575000 0.416667
vt 0.625000 0.416667
vt 0.625000 0.500000
vt 0.575000 0.500000
vt 0.425000 0.416667
vt 0.425000 0.500000
vt 0.425000 0.500000
vt 0.425000 0.416667
vt 0.425000 0.333333
vt 0.375000 0.333333
vt 0.450000 0.333333
vt 0.550000 0.333333
vt 0.625000 0.333333
vt 0.575000 0.333333
vn 0.371876 0.928187 -0.013330
vn 0.371876 0.928187 -0.013330
vn 0.371876 0.928187 -0.013330
vn 0.371876 0.928187 -0.013330
vn 0.788737 0.611208 0.065718
vn 0.788737 0.611208 0.065718
vn 0.788737 0.611208 0.065718
vn 0.788737 0.611208 0.065718
vn -0.000000 0.999943 -0.010722
vn -0.000000 0.999943 -0.010722
vn -0.000000 0.999943 -0.010722
vn -0.000000 0.999943 -0.010722
vn -0.788737 0.611208 0.065718
vn -0.788737 0.611208 0.065718
vn -0.788737 0.611208 0.065718
vn -0.788737 0.611208 0.065718
vn -0.371877 0.928187 -0.013330
vn -0.371877 0.928187 -0.013330
vn -0.371876 0.928187 -0.013330
vn -0.371876 0.928187 -0.013330
vn 0.000000 0.896928 0.442176
vn 0.000000 0.896928 0.442176
vn 0.000000 0.896928 0.442176
vn 0.000000 0.896928 0.442176
vn 0.000000 0.896928 0.442176
vn 0.000000 0.896928 0.442176
vn 0.000000 0.896928 0.442176
vn 0.000000 0.896928 0.442176
vn 0.000000 0.896928 0.442177
vn 0.000000 0.896928 0.442177
vn 0.000000 0.896928 0.442177
vn 0.000000 0.896928 0.442177
vn 0.016984 0.918596 0.394832
vn 0.016984 0.918596 0.394832
vn 0.016984 0.918596 0.394832
vn 0.016984 0.918596 0.394832
vn 0.865110 0.442002 0.237103
vn 0.865110 0.442002 0.237103
vn 0.865110 0.442002 0.237103
vn 0.865110 0.442002 0.237103
vn 0.000000 0.917308 0.398179
vn 0.000000 0.917308 0.398179
vn 0.000000 0.917308 0.398179
vn 0.000000 0.917308 0.398179
vn -0.865110 0.442002 0.237103
vn -0.865110 0.442002 0.237103
vn -0.865110 0.442002 0.237103
vn -0.865110 0.442002 0.237103
vn -0.016984 0.918596 0.394832
vn -0.016984 0.918596 0.394832
vn -0.016984 0.918596 0.394832
vn -0.016984 0.918596 0.394832
vn 0.033730 0.394521 0.918268
vn 0.033730 0.394521 0.918268
vn 0.033730 0.394521 0.918268
vn 0.492024 0.867685 -0.070959
vn 0.492024 0.867685 -0.070959
vn 0.492024 0.867685 -0.070959
vn 0.000000 0.395033 0.918667
vn 0.000000 0.395033 0.918667
vn 0.000000 0.395033 0.918667
vn 0.000000 0.395033 0.918667
vn -0.492024 0.867685 -0.070959
vn -0.492024 0.867685 -0.070959
vn -0.492024 0.867685 -0.070959
vn -0.033730 0.394521 0.918268
vn -0.033730 0.394521 0.918268
vn -0.033730 0.394521 0.918268
vn 0.085342 0.222972 0.971082
vn 0.085342 0.222972 0.971082
vn 0.085342 0.222972 0.971082
vn 0.085342 0.222972 0.971082
vn -0.217920 0.711830 -0.667689
vn -0.217920 0.711830 -0.667689
vn -0.217921 0.711830 -0.667689
vn -0.217921 0.711830 -0.667689
vn -0.390884 0.903681 0.174843
vn -0.390884 0.903681 0.174843
vn -0.390884 0.903681 0.174843
vn -0.390884 0.903681 0.174843
vn 0.000000 0.396400 0.918078
vn 0.000000 0.396400 0.918078
vn 0.000000 0.396400 0.918078
vn 0.000000 0.396400 0.918078
vn 0.000000 0.601240 -0.799069
vn 0.000000 0.601240 -0.799068
vn 0.000000 0.601240 -0.799068
vn 0.000000 0.601240 -0.799068
vn 0.000000 0.396400 0.918078
vn 0.000000 0.396400 0.918078
vn 0.000000 0.396400 0.918078
vn 0.000000 0.396400 0.918078
vn 0.000000 0.601240 -0.799069
vn 0.000000 0.601240 -0.799069
vn 0.000000 0.601240 -0.799069
vn 0.000000 0.601240 -0.799069
vn 0.000000 0.396400 0.918078
vn 0.000000 0.396400 0.918078
vn 0.000000 0.396400 0.918078
vn 0.000000 0.396400 0.918078
vn 0.000000 0.601240 -0.799069
vn 0.000000 0.601240 -0.799069
vn 0.000000 0.601240 -0.799069
vn 0.000000 0.601240 -0.799069
vn -0.085342 0.222972 0.971082
vn -0.085342 0.222972 0.971082
vn -0.085342 0.222972 0.971082
vn -0.085342 0.222972 0.971082
vn 0.390884 0.903681 0.174843
vn 0.390884 0.903681 0.174843
vn 0.390884 0.903681 0.174843
vn 0.390884 0.903681 0.174843
vn 0.217920 0.711830 -0.667689
vn 0.217920 0.711830 -0.667689
vn 0.217920 0.711830 -0.667689
vn 0.217920 0.711830 -0.667689
vn 0.264203 -0.210384 0.941242
vn 0.264203 -0.210384 0.941242
vn 0.264203 -0.210384 0.941242
vn 0.264203 -0.210384 0.941242
vn 0.902910 0.385527 0.190061
vn 0.902910 0.385527 0.190061
vn 0.902910 0.385527 0.190061
vn 0.902910 0.385527 0.190061
vn -0.265134 0.606246 -0.749779
vn -0.265134 0.606246 -0.749779
vn -0.265134 0.606246 -0.749779
vn -0.265134 0.606246 -0.749779
vn -0.923481 0.344101 0.169638
vn -0.923481 0.344101 0.169638
vn -0.923481 0.344101 0.169638
vn -0.923481 0.344101 0.169638
vn -0.264203 -0.210384 0.941242
vn -0.264203 -0.210384 0.941242
vn -0.264203 -0.210384 0.941242
vn -0.264203 -0.210384 0.941242
vn 0.923482 0.344100 0.169638
vn 0.923481 0.344100 0.169638
vn 0.923482 0.344100 0.169638
vn 0.923482 0.344100 0.169638
vn 0.265134 0.606246 -0.749779
vn 0.265134 0.606246 -0.749779
vn 0.265134 0.606246 -0.749779
vn 0.265134 0.606246 -0.749779
vn -0.902910 0.385526 0.190061
vn -0.902910 0.385526 0.190061
vn -0.902910 0.385526 0.190061
vn -0.902910 0.385526 0.190061
vn 0.335013 -0.440617 0.832841
vn 0.335013 -0.440617 0.832841
vn 0.335013 -0.440617 0.832841
vn 0.335013 -0.440617 0.832841
vn 1.000000 0.000001 0.000000
vn 1.000000 0.000001 0.000000
vn 1.000000 0.000001 0.000000
vn 1.000000 0.000001 0.000000
vn -0.335014 0.440617 -0.832840
vn -0.335014 0.440617 -0.832840
vn -0.335014 0.440617 -0.832840
vn -0.335014 0.440617 -0.832840
vn -1.000000 -0.000001 -0.000000
vn -1.000000 -0.000001 -0.000000
vn -1.000000 -0.000001 -0.000000
vn -1.000000 -0.000001 -0.000000
vn -0.334310 -0.440790 0.833031
vn -0.334310 -0.440790 0.833031
vn -0.334310 -0.440790 0.833031
vn -0.334310 -0.440790 0.833031
vn 1.000000 -0.000001 -0.000000
vn 1.000000 -0.000001 -0.000000
vn 1.000000 -0.000001 -0.000000
vn 1.000000 -0.000001 -0.000000
vn 0.334312 0.440790 -0.833031
vn 0.334312 0.440790 -0.833031
vn 0.334312 0.440790 -0.833031
vn 0.334312 0.440790 -0.833031
vn -1.000000 -0.000343 -0.000169
vn -1.000000 -0.000343 -0.000169
vn -1.000000 -0.000343 -0.000169
vn -1.000000 -0.000343 -0.000169
vn 0.322217 -0.725790 0.607787
vn 0.322217 -0.725790 0.607787
vn 0.322217 -0.725790 0.607787
vn 0.322217 -0.725790 0.607787
vn -0.325449 0.677160 -0.659952
vn -0.325449 0.677160 -0.659952
vn -0.325449 0.677160 -0.659952
vn -0.325449 0.677160 -0.659952
vn -1.000000 -0.000001 -0.000001
vn -1.000000 -0.000001 -0.000001
vn -1.000000 -0.000001 -0.000001
vn -1.000000 -0.000001 -0.000001
vn -0.320857 -0.726146 0.608081
vn -0.320857 -0.726146 0.608081
vn -0.320857 -0.726146 0.608081
vn -0.320857 -0.726146 0.608081
vn 1.000000 -0.000001 -0.000001
vn 1.000000 -0.000001 -0.000001
vn 1.000000 -0.000001 -0.000001
vn 1.000000 -0.000001 -0.000001
vn 0.324078 0.677498 -0.660280
vn 0.324078 0.677498 -0.660280
vn 0.324078 0.677498 -0.660280
vn 0.324078 0.677498 -0.660280
vn 0.204989 -0.942971 0.262271
vn 0.204989 -0.942971 0.262271
vn 0.204989 -0.942971 0.262271
vn 0.204989 -0.942971 0.262271
vn 0.999360 -0.012390 -0.033557
vn 0.999360 -0.012390 -0.033557
vn 0.999360 -0.012390 -0.033557
vn 0.999360 -0.012390 -0.033557
vn -0.213883 0.940982 -0.262310
vn -0.213883 0.940982 -0.262310
vn -0.213883 0.940982 -0.262310
vn -0.213883 0.940982 -0.262310
vn -0.999997 -0.002366 0.000765
vn -0.999997 -0.002366 0.000765
vn -0.999997 -0.002366 0.000765
vn -0.999997 -0.002366 0.000765
vn -0.204688 -0.943025 0.262309
vn -0.204688 -0.943025 0.262309
vn -0.204688 -0.943026 0.262309
vn -0.204688 -0.943025 0.262309
vn 0.999997 -0.002366 0.000765
vn 0.999997 -0.002366 0.000765
vn 0.999997 -0.002366 0.000765
vn 0.999997 -0.002366 0.000765
vn 0.213565 0.941043 -0.262351
vn 0.213565 0.941043 -0.262351
vn 0.213565 0.941043 -0.262351
vn 0.213565 0.941043 -0.262351
vn -0.999366 -0.012288 -0.033415
vn -0.999366 -0.012288 -0.033415
vn -0.999366 -0.012288 -0.033415
vn -0.999366 -0.012288 -0.033415
vn 0.000000 -0.896928 -0.442177
vn 0.000000 -0.896928 -0.442177
vn 0.000000 -0.896928 -0.442177
vn 0.000000 -0.896928 -0.442177
vn -0.000000 0.711551 -0.702635
vn -0.000000 0.711551 -0.702635
vn -0.000000 0.711551 -0.702635
vn -0.000000 0.711551 -0.702635
vn -0.000000 0.605536 0.795818
vn -0.000000 0.605536 0.795818
vn -0.000000 0.605536 0.795818
vn -0.000000 0.605536 0.795818
vn 0.000000 -0.755052 0.655665
vn 0.000000 -0.755052 0.655665
vn 0.000000 -0.755052 0.655665
vn 0.000000 -0.755052 0.655665
vn 0.643504 0.320539 -0.695095
vn 0.073396 0.608489 -0.790161
vn 0.073396 0.608489 -0.790161
vn 0.116582 0.589191 -0.799539
vn 0.984926 -0.081365 -0.152643
vn 0.984926 -0.081365 -0.152643
vn 0.984926 -0.081365 -0.152643
vn 0.000000 -0.061281 -0.998121
vn 0.000000 -0.061281 -0.998121
vn 0.000000 -0.061281 -0.998121
vn 0.000000 -0.061281 -0.998121
vn -0.984926 -0.081365 -0.152643
vn -0.984926 -0.081365 -0.152643
vn -0.984926 -0.081365 -0.152643
vn -0.073396 0.608489 -0.790161
vn -0.643504 0.320539 -0.695095
vn -0.116581 0.589191 -0.799540
vn -0.073396 0.608489 -0.790161
vn 0.417742 0.387379 -0.821845
vn -0.417742 0.387380 -0.821845
vn 0.037190 0.525569 -0.849938
vn -0.037189 0.525569 -0.849938
s off
g pCube1
usemtl initialShadingGroup
f 1/1/1 2/2/2 6/8/3 5/7/4
f 24/25/5 23/3/6 27/27/7 20/22/8
f 23/3/9 25/4/10 28/28/11 27/27/12
f 25/4/13 26/26/14 22/24/15 28/28/16
f 3/5/17 4/6/18 10/12/19 9/11/20
f 30/30/21 33/33/22 34/34/23 31/31/24
f 33/33/25 35/35/26 36/36/27 34/34/28
f 35/35/29 37/37/30 38/38/31 36/36/32
f 7/9/33 6/8/34 20/22/35 19/21/36
f 6/8/37 2/2/38 17/19/39 20/22/40
f 8/10/41 7/9/42 19/21/43 21/23/44
f 3/5/45 9/11/46 22/24/47 18/20/48
f 9/11/49 8/10/50 21/23/51 22/24/52
f 19/21/53 20/22/54 27/27/55
f 20/22/56 17/19/57 24/25/58
f 21/23/59 19/21/60 27/27/61 28/28/62
f 18/20/63 22/24/64 26/26/65
f 22/24/66 21/23/67 28/28/68
f 5/7/69 6/8/70 30/30/71 29/29/72
f 12/14/73 11/13/74 32/32/75 31/31/76
f 11/13/77 5/7/78 29/29/79 32/32/80
f 6/8/81 7/9/82 33/33/83 30/30/84
f 13/15/85 12/14/86 31/31/87 34/34/88
f 7/9/89 8/10/90 35/35/91 33/33/92
f 14/16/93 13/15/94 34/34/95 36/36/96
f 8/10/97 9/11/98 37/37/99 35/35/100
f 15/17/101 14/16/102 36/36/103 38/38/104
f 9/11/105 10/12/106 39/39/107 37/37/108
f 10/12/109 16/18/110 40/40/111 39/39/112
f 16/18/113 15/17/114 38/38/115 40/40/116
f 29/29/117 30/30/118 42/42/119 41/41/120
f 30/30/121 31/31/122 43/43/123 42/42/124
f 31/31/125 32/32/126 44/44/127 43/43/128
f 32/32/129 29/29/130 41/41/131 44/44/132
f 37/37/133 39/39/134 46/46/135 45/45/136
f 39/39/137 40/40/138 47/47/139 46/46/140
f 40/40/141 38/38/142 48/48/143 47/47/144
f 38/38/145 37/37/146 45/45/147 48/48/148
f 41/41/149 42/42/150 50/50/151 49/49/152
f 42/42/153 43/43/154 51/51/155 50/50/156
f 43/43/157 44/44/158 52/52/159 51/51/160
f 44/44/161 41/41/162 49/49/163 52/52/164
f 45/45/165 46/46/166 54/54/167 53/53/168
f 46/46/169 47/47/170 55/55/171 54/54/172
f 47/47/173 48/48/174 56/56/175 55/55/176
f 48/48/177 45/45/178 53/53/179 56/56/180
f 49/49/181 50/50/182 58/58/183 57/57/184
f 51/51/185 52/52/186 60/60/187 59/59/188
f 52/52/189 49/49/190 57/57/191 60/60/192
f 53/53/193 54/54/194 62/62/195 61/61/196
f 54/54/197 55/55/198 63/63/199 62/62/200
f 55/55/201 56/56/202 64/64/203 63/63/204
f 57/57/205 58/58/206 66/66/207 65/65/208
f 58/58/209 59/59/210 67/67/211 66/66/212
f 59/59/213 60/60/214 68/68/215 67/67/216
f 60/60/217 57/57/218 65/65/219 68/68/220
f 61/61/221 62/62/222 70/70/223 69/69/224
f 62/62/225 63/63/226 71/71/227 70/70/228
f 63/63/229 64/64/230 72/72/231 71/71/232
f 64/64/233 61/61/234 69/69/235 72/72/236
f 50/50/237 51/51/238 56/74/239 53/73/240
f 51/51/241 59/59/242 64/75/243 56/74/244
f 59/59/245 58/58/246 61/76/247 64/75/248
f 58/58/249 50/50/250 53/73/251 61/76/252
s 1
f 2/2/253 1/1/254 65/78/255 66/77/256
s off
f 23/3/257 24/25/258 66/79/259
f 25/4/260 23/3/261 66/79/262 69/80/263
f 26/26/264 25/4/265 69/80/266
s 2
f 4/6/267 3/5/268 69/82/269 70/81/270
s 1
f 17/19/271 2/2/253 66/77/256
s 2
f 3/5/268 18/20/272 69/82/269
s 1
f 24/25/273 17/19/271 66/77/256
s 2
f 18/20/272 26/26/274 69/80/269
